<?xml version="1.0" encoding="UTF-8" standalone="no"?>
<svg
   width="80"
   height="80"
   viewBox="0 0 250 250"
   fill="#151513"
   style="position: absolute; top: 0; right: 0"
   version="1.1"
   xmlns="http://www.w3.org/2000/svg"
   xmlns:svg="http://www.w3.org/2000/svg">
  <path
     fill-rule="evenodd"
     clip-rule="evenodd"
     d="M 250,0 H 0 l 114.46087,114.46086 c 2.33873,2.33874 3.92868,1.90279 5.0744,0.75707 1.00327,-1.00327 4.37184,-4.51252 7.95495,-8.09564 -14.52942,-9.369733 -9.27916,-19.596786 -9.27916,-19.596786 3.0951,-6.935856 1.53875,-11.070292 1.53875,-11.070292 -1.26002,-6.562156 2.93596,-2.366169 2.93596,-2.366169 4.05178,4.625078 2.17274,11.057097 2.17274,11.057097 -2.75131,10.431046 5.29861,14.75628 8.93448,16.09896 3.14963,-2.43916 6.22275,-3.234915 8.50628,-3.100385 -8.52737,-10.53392 -14.82926,-24.286929 1.79375,-40.909948 4.72883,-4.728834 10.30355,-6.891897 16.01543,-7.197887 0.64804,-1.500951 3.59718,-7.437935 11.89155,-11.036879 0,0 4.77368,2.480486 7.36319,16.247564 4.44872,2.554126 8.54157,5.683184 12.17292,9.306429 3.62708,3.627081 6.82243,7.826577 9.30555,12.172039 13.76795,2.590399 16.24844,7.364073 16.24844,7.364073 -3.59894,8.294366 -9.5368,11.24263 -11.03775,11.890669 -0.23476,5.783105 -2.46817,11.287475 -7.19701,16.016305 -16.62302,16.62303 -30.30393,10.24904 -40.98117,1.72254 0.20399,2.92628 -1.02437,6.85583 -5.10869,10.94015 -5.80333,5.80333 -10.53128,10.3906 -11.96365,11.82297 -1.1466,1.1466 -1.5754,2.74368 0.75619,5.07527 L 250,250 Z"
     fill="#ffffff"
     id="octo-cutout"
     style="fill:#ffffff" />
</svg>
